<svg width="63" height="63" viewBox="0 0 63 63" fill="none" xmlns="http://www.w3.org/2000/svg">
<circle cx="31.5" cy="31.5" r="31.5" fill="#0C2C5C" fill-opacity="0.95"/>
<path d="M37.872 40.472H23.664L21.024 47H11.328L26.16 13.4H35.52L50.4 47H40.512L37.872 40.472ZM35.088 33.464L30.768 22.712L26.448 33.464H35.088Z" fill="white"/>
<mask id="mask0" mask-type="alpha" maskUnits="userSpaceOnUse" x="11" y="13" width="40" height="34">
<path d="M37.872 40.472H23.664L21.024 47H11.328L26.16 13.4H35.52L50.4 47H40.512L37.872 40.472ZM35.088 33.464L30.768 22.712L26.448 33.464H35.088Z" fill="white"/>
</mask>
<g mask="url(#mask0)">
<path d="M60.0648 85.0252C68.9269 73.5837 97.7421 74.4987 80.268 46.2807C72.076 33.0518 51.71 30.1598 37.7495 36.8767C21.9314 44.4874 -3.06922 32.5479 -12.9741 43.8206L60.0648 85.0252Z" fill="#F5A8A8" stroke="#F5A8A8"/>
</g>
</svg>
